<svg xmlns="http://www.w3.org/2000/svg" width="1240" height="1832" fill="none" viewBox="0 0 1240 1832"><rect width="100%" height="100%" fill="#fff"/><style>text{font-family:-apple-system,BlinkMacSystemFont,&quot;Segoe UI&quot;,Roboto,&quot;Helvetica Neue&quot;,&quot;PingFang SC&quot;,&quot;Hiragino Sans GB&quot;,&quot;Microsoft YaHei&quot;,sans-serif}</style><text x="36" y="58" fill="#0f172a" font-size="22" font-weight="800" letter-spacing="-.3">fastalp 浮点压缩引擎综合基准评测</text><a target="_blank">
    <text x="36" y="80" fill="#2563eb" font-size="12" font-weight="600">github.com/webc-site/wedb_embed/tree/main/fastalp</text>
  </a><text x="36" y="102" fill="#334155" font-size="12.5" font-weight="500">同机实测：解压吞吐量、压缩吞吐量、压缩率与工业场景全量对比</text><g transform="translate(720 36)"><rect width="484" height="78" fill="#f8fafc" stroke="#cbd5e1" rx="8"/><text x="16" y="22" fill="#0f172a" font-size="11" font-weight="bold">实测硬件与运行环境</text><text x="16" y="44" fill="#1e293b" font-size="11.5" font-weight="500">芯片: Apple M2 Max (12核: 8性能核 @ 3.68GHz + 4能效核 @ 2.42GHz)</text><text x="16" y="64" fill="#475569" font-size="11">环境: macOS Sequoia ｜ 工具链: Rust 1.98 / LLVM Clang (-O3)</text></g><text x="36" y="134" fill="#0f172a" font-size="16" font-weight="bold">主流算法综合基准对比 (8 种算法)</text><text x="36" y="154" fill="#475569" font-size="12">基于 31 个真实物理、金融、气象公开时序数据集单核全量实测</text><g transform="translate(920 136)"><rect width="12" height="12" fill="#2563eb" rx="3"/><text x="18" y="10" fill="#1e293b" font-size="11" font-weight="600">解压吞吐 (GB/s)</text><rect width="12" height="12" x="135" fill="#d97706" rx="3"/><text x="153" y="10" fill="#1e293b" font-size="11" font-weight="600">压缩吞吐 (GB/s)</text></g><rect width="1176" height="34" x="32" y="184" fill="#f1f5f9" stroke="#cbd5e1" rx="6"/><text x="48" y="206" fill="#1e293b" font-size="11" font-weight="bold">算法名称</text><text x="250" y="206" fill="#1e293b" font-size="11" font-weight="bold">解压吞吐</text><text x="500" y="206" fill="#1e293b" font-size="11" font-weight="bold">压缩吞吐</text><text x="760" y="206" fill="#1e293b" font-size="11" font-weight="bold">压缩率</text><text x="910" y="206" fill="#1e293b" font-size="11" font-weight="bold">总体积</text><text x="1110" y="206" fill="#1e293b" font-size="11" font-weight="bold">相对对比</text><g class="table-row"><rect width="1176" height="42" x="32" y="228" fill="#f0f7ff" stroke="#bfdbfe" stroke-width="1.2" rx="8"/><text x="48" y="251" fill="#1d4ed8" font-size="13.5" font-weight="bold">fastalp (Rust)</text><text x="48" y="265" fill="#475569" font-size="11">专用浮点</text><rect width="48" height="18" x="180" y="237" fill="#2563eb" rx="4"/><text x="204" y="250" fill="#fff" font-size="10" font-weight="bold" text-anchor="middle">领先</text><g transform="translate(250 239)"><rect width="140" height="14" fill="#dbeafe" rx="3"/><rect width="124.731" height="14" fill="#2563eb" rx="3"/><text x="150" y="12" fill="#1d4ed8" font-size="12.5" font-weight="bold">28.51 GB/s</text></g><g transform="translate(500 239)"><rect width="140" height="14" fill="#fef3c7" rx="3"/><rect width="37.625" height="14" fill="#d97706" rx="3"/><text x="150" y="12" fill="#92400e" font-size="12.5" font-weight="bold">2.15 GB/s</text></g><text x="760" y="254" fill="#1d4ed8" font-size="14" font-weight="bold">2.66x</text><text x="910" y="254" fill="#0f172a" font-size="13.5" font-weight="600">93.1 KB</text><text x="1110" y="254" fill="#1e3a8a" font-size="12.5" font-weight="bold">比 C++ 快 30.5%</text></g><g class="table-row"><rect width="1176" height="42" x="32" y="274" fill="#f8fafc" rx="8"/><text x="48" y="297" fill="#0f172a" font-size="13.5" font-weight="600">C++ ALP</text><text x="48" y="311" fill="#475569" font-size="11">专用浮点</text><g transform="translate(250 285)"><rect width="140" height="14" fill="#dbeafe" rx="3"/><rect width="95.594" height="14" fill="#3b82f6" rx="3"/><text x="150" y="12" fill="#1e3a8a" font-size="12.5" font-weight="600">21.85 GB/s</text></g><g transform="translate(500 285)"><rect width="140" height="14" fill="#fef3c7" rx="3"/><rect width="14.7" height="14" fill="#f59e0b" rx="3"/><text x="150" y="12" fill="#78350f" font-size="12.5" font-weight="600">0.84 GB/s</text></g><text x="760" y="300" fill="#0f172a" font-size="14" font-weight="600">2.47x</text><text x="910" y="300" fill="#0f172a" font-size="13.5" font-weight="600">100.5 KB</text><text x="1110" y="300" fill="#475569" font-size="12" font-weight="600">基准</text></g><g class="table-row"><text x="48" y="343" fill="#0f172a" font-size="13.5" font-weight="600">Pcodec (pco)</text><text x="48" y="357" fill="#475569" font-size="11">专用浮点</text><g transform="translate(250 331)"><rect width="140" height="14" fill="#dbeafe" rx="3"/><rect width="8.838" height="14" fill="#64748b" rx="3"/><text x="150" y="12" fill="#1e293b" font-size="12.5" font-weight="600">2.02 GB/s</text></g><g transform="translate(500 331)"><rect width="140" height="14" fill="#fef3c7" rx="3"/><rect width="6" height="14" fill="#b45309" rx="3"/><text x="150" y="12" fill="#475569" font-size="12.5" font-weight="600">0.24 GB/s</text></g><text x="760" y="346" fill="#0f172a" font-size="14" font-weight="600">3.06x</text><text x="910" y="346" fill="#0f172a" font-size="13.5" font-weight="600">80.9 KB</text><text x="1110" y="346" fill="#64748b" font-size="12" font-weight="500">0.07x 吞吐</text></g><g class="table-row"><rect width="1176" height="42" x="32" y="366" fill="#f8fafc" rx="8"/><text x="48" y="389" fill="#0f172a" font-size="13.5" font-weight="600">Zstd (level 3)</text><text x="48" y="403" fill="#475569" font-size="11">通用字节</text><g transform="translate(250 377)"><rect width="140" height="14" fill="#dbeafe" rx="3"/><rect width="6" height="14" fill="#64748b" rx="3"/><text x="150" y="12" fill="#1e293b" font-size="12.5" font-weight="600">1.37 GB/s</text></g><g transform="translate(500 377)"><rect width="140" height="14" fill="#fef3c7" rx="3"/><rect width="11.375" height="14" fill="#b45309" rx="3"/><text x="150" y="12" fill="#475569" font-size="12.5" font-weight="600">0.65 GB/s</text></g><text x="760" y="392" fill="#0f172a" font-size="14" font-weight="600">2.51x</text><text x="910" y="392" fill="#0f172a" font-size="13.5" font-weight="600">98.9 KB</text><text x="1110" y="392" fill="#64748b" font-size="12" font-weight="500">0.05x 吞吐</text></g><g class="table-row"><text x="48" y="435" fill="#0f172a" font-size="13.5" font-weight="600">LZ4 (lz4_flex)</text><text x="48" y="449" fill="#475569" font-size="11">通用字节</text><g transform="translate(250 423)"><rect width="140" height="14" fill="#dbeafe" rx="3"/><rect width="36.881" height="14" fill="#64748b" rx="3"/><text x="150" y="12" fill="#1e293b" font-size="12.5" font-weight="600">8.43 GB/s</text></g><g transform="translate(500 423)"><rect width="140" height="14" fill="#fef3c7" rx="3"/><rect width="51.625" height="14" fill="#b45309" rx="3"/><text x="150" y="12" fill="#475569" font-size="12.5" font-weight="600">2.95 GB/s</text></g><text x="760" y="438" fill="#0f172a" font-size="14" font-weight="600">1.97x</text><text x="910" y="438" fill="#0f172a" font-size="13.5" font-weight="600">126.2 KB</text><text x="1110" y="438" fill="#64748b" font-size="12" font-weight="500">0.30x 吞吐</text></g><g class="table-row"><rect width="1176" height="42" x="32" y="458" fill="#f8fafc" rx="8"/><text x="48" y="481" fill="#0f172a" font-size="13.5" font-weight="600">Snappy (snap)</text><text x="48" y="495" fill="#475569" font-size="11">通用字节</text><g transform="translate(250 469)"><rect width="140" height="14" fill="#dbeafe" rx="3"/><rect width="35.875" height="14" fill="#64748b" rx="3"/><text x="150" y="12" fill="#1e293b" font-size="12.5" font-weight="600">8.20 GB/s</text></g><g transform="translate(500 469)"><rect width="140" height="14" fill="#fef3c7" rx="3"/><rect width="69.475" height="14" fill="#b45309" rx="3"/><text x="150" y="12" fill="#475569" font-size="12.5" font-weight="600">3.97 GB/s</text></g><text x="760" y="484" fill="#0f172a" font-size="14" font-weight="600">2.00x</text><text x="910" y="484" fill="#0f172a" font-size="13.5" font-weight="600">124.3 KB</text><text x="1110" y="484" fill="#64748b" font-size="12" font-weight="500">0.29x 吞吐</text></g><g class="table-row"><text x="48" y="527" fill="#0f172a" font-size="13.5" font-weight="600">Chimp128 (graupel)</text><text x="48" y="541" fill="#475569" font-size="11">专用浮点</text><g transform="translate(250 515)"><rect width="140" height="14" fill="#dbeafe" rx="3"/><rect width="6" height="14" fill="#64748b" rx="3"/><text x="150" y="12" fill="#1e293b" font-size="12.5" font-weight="600">0.51 GB/s</text></g><g transform="translate(500 515)"><rect width="140" height="14" fill="#fef3c7" rx="3"/><rect width="11.375" height="14" fill="#b45309" rx="3"/><text x="150" y="12" fill="#475569" font-size="12.5" font-weight="600">0.65 GB/s</text></g><text x="760" y="530" fill="#0f172a" font-size="14" font-weight="600">2.12x</text><text x="910" y="530" fill="#0f172a" font-size="13.5" font-weight="600">116.9 KB</text><text x="1110" y="530" fill="#64748b" font-size="12" font-weight="500">0.02x 吞吐</text></g><g class="table-row"><rect width="1176" height="42" x="32" y="550" fill="#f8fafc" rx="8"/><text x="48" y="573" fill="#0f172a" font-size="13.5" font-weight="600">Gorilla (graupel)</text><text x="48" y="587" fill="#475569" font-size="11">专用浮点</text><g transform="translate(250 561)"><rect width="140" height="14" fill="#dbeafe" rx="3"/><rect width="6" height="14" fill="#64748b" rx="3"/><text x="150" y="12" fill="#1e293b" font-size="12.5" font-weight="600">0.67 GB/s</text></g><g transform="translate(500 561)"><rect width="140" height="14" fill="#fef3c7" rx="3"/><rect width="20.3" height="14" fill="#b45309" rx="3"/><text x="150" y="12" fill="#475569" font-size="12.5" font-weight="600">1.16 GB/s</text></g><text x="760" y="576" fill="#0f172a" font-size="14" font-weight="600">1.52x</text><text x="910" y="576" fill="#0f172a" font-size="13.5" font-weight="600">163.7 KB</text><text x="1110" y="576" fill="#64748b" font-size="12" font-weight="500">0.02x 吞吐</text></g><g class="sec2-unified-card"><rect width="1176" height="550" x="32" y="656" fill="#fff" stroke="#cbd5e1" stroke-width="1.2" rx="10"/><path fill="#f8fafc" d="M32 666q0-10 10-10h1156q10 0 10 10v34H32Z"/><text x="48" y="684" fill="#0f172a" font-size="13.5" font-weight="bold">31 个测试集全量逐一实测对比 (fastalp vs C++ ALP)</text><text x="1192" y="684" fill="#475569" font-size="11.5" font-weight="500" text-anchor="end">完整列出全部 31 个公开数据集的压缩率、解压吞吐量与加速倍数</text><g class="subtable"><rect width="564" height="32" x="48" y="728" fill="#f1f5f9" rx="5"/><text x="60" y="748" fill="#334155" font-size="10" font-weight="bold">测试集名称</text><text x="228" y="748" fill="#1d4ed8" font-size="10" font-weight="bold">fastalp 压缩率</text><text x="303" y="748" fill="#475569" font-size="10" font-weight="bold">C++ 压缩率</text><text x="378" y="748" fill="#1d4ed8" font-size="10" font-weight="bold">fastalp 解压</text><text x="463" y="748" fill="#475569" font-size="10" font-weight="bold">C++ 解压</text><text x="600" y="748" fill="#334155" font-size="10" font-weight="bold" text-anchor="end">加速比</text><text x="60" y="777" fill="#0f172a" font-size="10.5" font-weight="600">air_sensor_f</text><text x="228" y="777" fill="#1d4ed8" font-size="11" font-weight="bold">1.00x</text><text x="303" y="777" fill="#475569" font-size="11" font-weight="500">0.83x</text><text x="378" y="777" fill="#1d4ed8" font-size="11" font-weight="bold">79.3 GB/s</text><text x="463" y="777" fill="#475569" font-size="11" font-weight="500">21.9 GB/s</text><text x="600" y="777" fill="#1e3a8a" font-size="10.5" font-weight="bold" text-anchor="end">+263%</text><rect width="564" height="24" x="48" y="787" fill="#f8fafc" rx="4"/><text x="60" y="803" fill="#0f172a" font-size="10.5" font-weight="600">arade4</text><text x="228" y="803" fill="#1d4ed8" font-size="11" font-weight="bold">2.66x</text><text x="303" y="803" fill="#475569" font-size="11" font-weight="500">2.69x</text><text x="378" y="803" fill="#1d4ed8" font-size="11" font-weight="bold">13.7 GB/s</text><text x="463" y="803" fill="#475569" font-size="11" font-weight="500">21.9 GB/s</text><text x="600" y="803" fill="#64748b" font-size="10.5" font-weight="bold" text-anchor="end">0.63x</text><text x="60" y="829" fill="#0f172a" font-size="10.5" font-weight="600">basel_temp_f</text><text x="228" y="829" fill="#1d4ed8" font-size="11" font-weight="bold">2.06x</text><text x="303" y="829" fill="#475569" font-size="11" font-weight="500">2.02x</text><text x="378" y="829" fill="#1d4ed8" font-size="11" font-weight="bold">9.0 GB/s</text><text x="463" y="829" fill="#475569" font-size="11" font-weight="500">21.9 GB/s</text><text x="600" y="829" fill="#64748b" font-size="10.5" font-weight="bold" text-anchor="end">0.41x</text><rect width="564" height="24" x="48" y="839" fill="#f8fafc" rx="4"/><text x="60" y="855" fill="#0f172a" font-size="10.5" font-weight="600">basel_wind_f</text><text x="228" y="855" fill="#1d4ed8" font-size="11" font-weight="bold">2.34x</text><text x="303" y="855" fill="#475569" font-size="11" font-weight="500">2.15x</text><text x="378" y="855" fill="#1d4ed8" font-size="11" font-weight="bold">9.1 GB/s</text><text x="463" y="855" fill="#475569" font-size="11" font-weight="500">21.9 GB/s</text><text x="600" y="855" fill="#64748b" font-size="10.5" font-weight="bold" text-anchor="end">0.42x</text><text x="60" y="881" fill="#0f172a" font-size="10.5" font-weight="600">bird_migration_f</text><text x="228" y="881" fill="#1d4ed8" font-size="11" font-weight="bold">3.96x</text><text x="303" y="881" fill="#475569" font-size="11" font-weight="500">3.08x</text><text x="378" y="881" fill="#1d4ed8" font-size="11" font-weight="bold">39.2 GB/s</text><text x="463" y="881" fill="#475569" font-size="11" font-weight="500">21.9 GB/s</text><text x="600" y="881" fill="#1e3a8a" font-size="10.5" font-weight="bold" text-anchor="end">+79%</text><rect width="564" height="24" x="48" y="891" fill="#f8fafc" rx="4"/><text x="60" y="907" fill="#0f172a" font-size="10.5" font-weight="600">bitcoin_f</text><text x="228" y="907" fill="#1d4ed8" font-size="11" font-weight="bold">1.05x</text><text x="303" y="907" fill="#475569" font-size="11" font-weight="500">2.80x</text><text x="378" y="907" fill="#1d4ed8" font-size="11" font-weight="bold">2.1 GB/s</text><text x="463" y="907" fill="#475569" font-size="11" font-weight="500">21.9 GB/s</text><text x="600" y="907" fill="#64748b" font-size="10.5" font-weight="bold" text-anchor="end">0.10x</text><text x="60" y="933" fill="#0f172a" font-size="10.5" font-weight="600">bitcoin_transactions_f</text><text x="228" y="933" fill="#1d4ed8" font-size="11" font-weight="bold">1.93x</text><text x="303" y="933" fill="#475569" font-size="11" font-weight="500">2.81x</text><text x="378" y="933" fill="#1d4ed8" font-size="11" font-weight="bold">17.1 GB/s</text><text x="463" y="933" fill="#475569" font-size="11" font-weight="500">21.9 GB/s</text><text x="600" y="933" fill="#64748b" font-size="10.5" font-weight="bold" text-anchor="end">0.78x</text><rect width="564" height="24" x="48" y="943" fill="#f8fafc" rx="4"/><text x="60" y="959" fill="#0f172a" font-size="10.5" font-weight="600">city_temperature_f</text><text x="228" y="959" fill="#1d4ed8" font-size="11" font-weight="bold">5.77x</text><text x="303" y="959" fill="#475569" font-size="11" font-weight="500">2.31x</text><text x="378" y="959" fill="#1d4ed8" font-size="11" font-weight="bold">16.3 GB/s</text><text x="463" y="959" fill="#475569" font-size="11" font-weight="500">21.9 GB/s</text><text x="600" y="959" fill="#64748b" font-size="10.5" font-weight="bold" text-anchor="end">0.75x</text><text x="60" y="985" fill="#0f172a" font-size="10.5" font-weight="600">cms1</text><text x="228" y="985" fill="#1d4ed8" font-size="11" font-weight="bold">1.00x</text><text x="303" y="985" fill="#475569" font-size="11" font-weight="500">3.07x</text><text x="378" y="985" fill="#1d4ed8" font-size="11" font-weight="bold">57.8 GB/s</text><text x="463" y="985" fill="#475569" font-size="11" font-weight="500">21.9 GB/s</text><text x="600" y="985" fill="#1e3a8a" font-size="10.5" font-weight="bold" text-anchor="end">+165%</text><rect width="564" height="24" x="48" y="995" fill="#f8fafc" rx="4"/><text x="60" y="1011" fill="#0f172a" font-size="10.5" font-weight="600">cms25</text><text x="228" y="1011" fill="#1d4ed8" font-size="11" font-weight="bold">1.52x</text><text x="303" y="1011" fill="#475569" font-size="11" font-weight="500">3.04x</text><text x="378" y="1011" fill="#1d4ed8" font-size="11" font-weight="bold">15.9 GB/s</text><text x="463" y="1011" fill="#475569" font-size="11" font-weight="500">21.9 GB/s</text><text x="600" y="1011" fill="#64748b" font-size="10.5" font-weight="bold" text-anchor="end">0.73x</text><text x="60" y="1037" fill="#0f172a" font-size="10.5" font-weight="600">cms9</text><text x="228" y="1037" fill="#1d4ed8" font-size="11" font-weight="bold">5.77x</text><text x="303" y="1037" fill="#475569" font-size="11" font-weight="500">5.74x</text><text x="378" y="1037" fill="#1d4ed8" font-size="11" font-weight="bold">10.9 GB/s</text><text x="463" y="1037" fill="#475569" font-size="11" font-weight="500">21.9 GB/s</text><text x="600" y="1037" fill="#64748b" font-size="10.5" font-weight="bold" text-anchor="end">0.50x</text><rect width="564" height="24" x="48" y="1047" fill="#f8fafc" rx="4"/><text x="60" y="1063" fill="#0f172a" font-size="10.5" font-weight="600">food_prices</text><text x="228" y="1063" fill="#1d4ed8" font-size="11" font-weight="bold">2.77x</text><text x="303" y="1063" fill="#475569" font-size="11" font-weight="500">2.49x</text><text x="378" y="1063" fill="#1d4ed8" font-size="11" font-weight="bold">15.3 GB/s</text><text x="463" y="1063" fill="#475569" font-size="11" font-weight="500">21.9 GB/s</text><text x="600" y="1063" fill="#64748b" font-size="10.5" font-weight="bold" text-anchor="end">0.70x</text><text x="60" y="1089" fill="#0f172a" font-size="10.5" font-weight="600">gov10</text><text x="228" y="1089" fill="#1d4ed8" font-size="11" font-weight="bold">2.13x</text><text x="303" y="1089" fill="#475569" font-size="11" font-weight="500">3.59x</text><text x="378" y="1089" fill="#1d4ed8" font-size="11" font-weight="bold">13.7 GB/s</text><text x="463" y="1089" fill="#475569" font-size="11" font-weight="500">21.9 GB/s</text><text x="600" y="1089" fill="#64748b" font-size="10.5" font-weight="bold" text-anchor="end">0.63x</text><rect width="564" height="24" x="48" y="1099" fill="#f8fafc" rx="4"/><text x="60" y="1115" fill="#0f172a" font-size="10.5" font-weight="600">gov26</text><text x="228" y="1115" fill="#1d4ed8" font-size="11" font-weight="bold">744.73x</text><text x="303" y="1115" fill="#475569" font-size="11" font-weight="500">455.11x</text><text x="378" y="1115" fill="#1d4ed8" font-size="11" font-weight="bold">46.3 GB/s</text><text x="463" y="1115" fill="#475569" font-size="11" font-weight="500">21.9 GB/s</text><text x="600" y="1115" fill="#1e3a8a" font-size="10.5" font-weight="bold" text-anchor="end">+112%</text><text x="60" y="1141" fill="#0f172a" font-size="10.5" font-weight="600">gov30</text><text x="228" y="1141" fill="#1d4ed8" font-size="11" font-weight="bold">154.57x</text><text x="303" y="1141" fill="#475569" font-size="11" font-weight="500">141.24x</text><text x="378" y="1141" fill="#1d4ed8" font-size="11" font-weight="bold">62.4 GB/s</text><text x="463" y="1141" fill="#475569" font-size="11" font-weight="500">21.9 GB/s</text><text x="600" y="1141" fill="#1e3a8a" font-size="10.5" font-weight="bold" text-anchor="end">+186%</text><rect width="564" height="24" x="48" y="1151" fill="#f8fafc" rx="4"/><text x="60" y="1167" fill="#0f172a" font-size="10.5" font-weight="600">gov31</text><text x="228" y="1167" fill="#1d4ed8" font-size="11" font-weight="bold">356.17x</text><text x="303" y="1167" fill="#475569" font-size="11" font-weight="500">292.57x</text><text x="378" y="1167" fill="#1d4ed8" font-size="11" font-weight="bold">77.4 GB/s</text><text x="463" y="1167" fill="#475569" font-size="11" font-weight="500">21.9 GB/s</text><text x="600" y="1167" fill="#1e3a8a" font-size="10.5" font-weight="bold" text-anchor="end">+254%</text></g><g class="subtable"><rect width="564" height="32" x="628" y="728" fill="#f1f5f9" rx="5"/><text x="640" y="748" fill="#334155" font-size="10" font-weight="bold">测试集名称</text><text x="808" y="748" fill="#1d4ed8" font-size="10" font-weight="bold">fastalp 压缩率</text><text x="883" y="748" fill="#475569" font-size="10" font-weight="bold">C++ 压缩率</text><text x="958" y="748" fill="#1d4ed8" font-size="10" font-weight="bold">fastalp 解压</text><text x="1043" y="748" fill="#475569" font-size="10" font-weight="bold">C++ 解压</text><text x="1180" y="748" fill="#334155" font-size="10" font-weight="bold" text-anchor="end">加速比</text><text x="640" y="777" fill="#0f172a" font-size="10.5" font-weight="600">gov40</text><text x="808" y="777" fill="#1d4ed8" font-size="11" font-weight="bold">190.51x</text><text x="883" y="777" fill="#475569" font-size="11" font-weight="500">3.34x</text><text x="958" y="777" fill="#1d4ed8" font-size="11" font-weight="bold">76.8 GB/s</text><text x="1043" y="777" fill="#475569" font-size="11" font-weight="500">21.9 GB/s</text><text x="1180" y="777" fill="#1e3a8a" font-size="10.5" font-weight="bold" text-anchor="end">+251%</text><rect width="564" height="24" x="628" y="787" fill="#f8fafc" rx="4"/><text x="640" y="803" fill="#0f172a" font-size="10.5" font-weight="600">medicare1</text><text x="808" y="803" fill="#1d4ed8" font-size="11" font-weight="bold">1.83x</text><text x="883" y="803" fill="#475569" font-size="11" font-weight="500">3.07x</text><text x="958" y="803" fill="#1d4ed8" font-size="11" font-weight="bold">13.5 GB/s</text><text x="1043" y="803" fill="#475569" font-size="11" font-weight="500">21.9 GB/s</text><text x="1180" y="803" fill="#64748b" font-size="10.5" font-weight="bold" text-anchor="end">0.62x</text><text x="640" y="829" fill="#0f172a" font-size="10.5" font-weight="600">medicare9</text><text x="808" y="829" fill="#1d4ed8" font-size="11" font-weight="bold">5.77x</text><text x="883" y="829" fill="#475569" font-size="11" font-weight="500">5.74x</text><text x="958" y="829" fill="#1d4ed8" font-size="11" font-weight="bold">15.1 GB/s</text><text x="1043" y="829" fill="#475569" font-size="11" font-weight="500">21.9 GB/s</text><text x="1180" y="829" fill="#64748b" font-size="10.5" font-weight="bold" text-anchor="end">0.69x</text><rect width="564" height="24" x="628" y="839" fill="#f8fafc" rx="4"/><text x="640" y="855" fill="#0f172a" font-size="10.5" font-weight="600">neon_air_pressure</text><text x="808" y="855" fill="#1d4ed8" font-size="11" font-weight="bold">6.31x</text><text x="883" y="855" fill="#475569" font-size="11" font-weight="500">2.19x</text><text x="958" y="855" fill="#1d4ed8" font-size="11" font-weight="bold">9.2 GB/s</text><text x="1043" y="855" fill="#475569" font-size="11" font-weight="500">21.9 GB/s</text><text x="1180" y="855" fill="#64748b" font-size="10.5" font-weight="bold" text-anchor="end">0.42x</text><text x="640" y="881" fill="#0f172a" font-size="10.5" font-weight="600">neon_bio_temp_c</text><text x="808" y="881" fill="#1d4ed8" font-size="11" font-weight="bold">7.86x</text><text x="883" y="881" fill="#475569" font-size="11" font-weight="500">2.77x</text><text x="958" y="881" fill="#1d4ed8" font-size="11" font-weight="bold">11.4 GB/s</text><text x="1043" y="881" fill="#475569" font-size="11" font-weight="500">21.9 GB/s</text><text x="1180" y="881" fill="#64748b" font-size="10.5" font-weight="bold" text-anchor="end">0.52x</text><rect width="564" height="24" x="628" y="891" fill="#f8fafc" rx="4"/><text x="640" y="907" fill="#0f172a" font-size="10.5" font-weight="600">neon_dew_point_temp</text><text x="808" y="907" fill="#1d4ed8" font-size="11" font-weight="bold">7.00x</text><text x="883" y="907" fill="#475569" font-size="11" font-weight="500">2.00x</text><text x="958" y="907" fill="#1d4ed8" font-size="11" font-weight="bold">9.2 GB/s</text><text x="1043" y="907" fill="#475569" font-size="11" font-weight="500">21.9 GB/s</text><text x="1180" y="907" fill="#64748b" font-size="10.5" font-weight="bold" text-anchor="end">0.42x</text><text x="640" y="933" fill="#0f172a" font-size="10.5" font-weight="600">neon_pm10_dust</text><text x="808" y="933" fill="#1d4ed8" font-size="11" font-weight="bold">7.92x</text><text x="883" y="933" fill="#475569" font-size="11" font-weight="500">5.26x</text><text x="958" y="933" fill="#1d4ed8" font-size="11" font-weight="bold">25.3 GB/s</text><text x="1043" y="933" fill="#475569" font-size="11" font-weight="500">21.9 GB/s</text><text x="1180" y="933" fill="#1e3a8a" font-size="10.5" font-weight="bold" text-anchor="end">+16%</text><rect width="564" height="24" x="628" y="943" fill="#f8fafc" rx="4"/><text x="640" y="959" fill="#0f172a" font-size="10.5" font-weight="600">neon_wind_dir</text><text x="808" y="959" fill="#1d4ed8" font-size="11" font-weight="bold">3.98x</text><text x="883" y="959" fill="#475569" font-size="11" font-weight="500">2.20x</text><text x="958" y="959" fill="#1d4ed8" font-size="11" font-weight="bold">41.2 GB/s</text><text x="1043" y="959" fill="#475569" font-size="11" font-weight="500">21.9 GB/s</text><text x="1180" y="959" fill="#1e3a8a" font-size="10.5" font-weight="bold" text-anchor="end">+89%</text><text x="640" y="985" fill="#0f172a" font-size="10.5" font-weight="600">nyc29</text><text x="808" y="985" fill="#1d4ed8" font-size="11" font-weight="bold">1.52x</text><text x="883" y="985" fill="#475569" font-size="11" font-weight="500">1.50x</text><text x="958" y="985" fill="#1d4ed8" font-size="11" font-weight="bold">16.2 GB/s</text><text x="1043" y="985" fill="#475569" font-size="11" font-weight="500">21.9 GB/s</text><text x="1180" y="985" fill="#64748b" font-size="10.5" font-weight="bold" text-anchor="end">0.74x</text><rect width="564" height="24" x="628" y="995" fill="#f8fafc" rx="4"/><text x="640" y="1011" fill="#0f172a" font-size="10.5" font-weight="600">poi_lat</text><text x="808" y="1011" fill="#1d4ed8" font-size="11" font-weight="bold">1.00x</text><text x="883" y="1011" fill="#475569" font-size="11" font-weight="500">0.82x</text><text x="958" y="1011" fill="#1d4ed8" font-size="11" font-weight="bold">58.0 GB/s</text><text x="1043" y="1011" fill="#475569" font-size="11" font-weight="500">21.9 GB/s</text><text x="1180" y="1011" fill="#1e3a8a" font-size="10.5" font-weight="bold" text-anchor="end">+165%</text><text x="640" y="1037" fill="#0f172a" font-size="10.5" font-weight="600">poi_lon</text><text x="808" y="1037" fill="#1d4ed8" font-size="11" font-weight="bold">1.00x</text><text x="883" y="1037" fill="#475569" font-size="11" font-weight="500">0.82x</text><text x="958" y="1037" fill="#1d4ed8" font-size="11" font-weight="bold">52.3 GB/s</text><text x="1043" y="1037" fill="#475569" font-size="11" font-weight="500">21.9 GB/s</text><text x="1180" y="1037" fill="#1e3a8a" font-size="10.5" font-weight="bold" text-anchor="end">+139%</text><rect width="564" height="24" x="628" y="1047" fill="#f8fafc" rx="4"/><text x="640" y="1063" fill="#0f172a" font-size="10.5" font-weight="600">ssd_hdd_benchmarks_f</text><text x="808" y="1063" fill="#1d4ed8" font-size="11" font-weight="bold">3.96x</text><text x="883" y="1063" fill="#475569" font-size="11" font-weight="500">2.26x</text><text x="958" y="1063" fill="#1d4ed8" font-size="11" font-weight="bold">40.9 GB/s</text><text x="1043" y="1063" fill="#475569" font-size="11" font-weight="500">21.9 GB/s</text><text x="1180" y="1063" fill="#1e3a8a" font-size="10.5" font-weight="bold" text-anchor="end">+87%</text><text x="640" y="1089" fill="#0f172a" font-size="10.5" font-weight="600">stocks_de</text><text x="808" y="1089" fill="#1d4ed8" font-size="11" font-weight="bold">8.95x</text><text x="883" y="1089" fill="#475569" font-size="11" font-weight="500">3.12x</text><text x="958" y="1089" fill="#1d4ed8" font-size="11" font-weight="bold">8.4 GB/s</text><text x="1043" y="1089" fill="#475569" font-size="11" font-weight="500">21.9 GB/s</text><text x="1180" y="1089" fill="#64748b" font-size="10.5" font-weight="bold" text-anchor="end">0.38x</text><rect width="564" height="24" x="628" y="1099" fill="#f8fafc" rx="4"/><text x="640" y="1115" fill="#0f172a" font-size="10.5" font-weight="600">stocks_uk</text><text x="808" y="1115" fill="#1d4ed8" font-size="11" font-weight="bold">7.86x</text><text x="883" y="1115" fill="#475569" font-size="11" font-weight="500">7.00x</text><text x="958" y="1115" fill="#1d4ed8" font-size="11" font-weight="bold">12.7 GB/s</text><text x="1043" y="1115" fill="#475569" font-size="11" font-weight="500">21.9 GB/s</text><text x="1180" y="1115" fill="#64748b" font-size="10.5" font-weight="bold" text-anchor="end">0.58x</text><text x="640" y="1141" fill="#0f172a" font-size="10.5" font-weight="600">stocks_usa_c</text><text x="808" y="1141" fill="#1d4ed8" font-size="11" font-weight="bold">10.41x</text><text x="883" y="1141" fill="#475569" font-size="11" font-weight="500">4.19x</text><text x="958" y="1141" fill="#1d4ed8" font-size="11" font-weight="bold">8.3 GB/s</text><text x="1043" y="1141" fill="#475569" font-size="11" font-weight="500">21.9 GB/s</text><text x="1180" y="1141" fill="#64748b" font-size="10.5" font-weight="bold" text-anchor="end">0.38x</text><rect width="564" height="24" x="628" y="1151" fill="#eff6ff" rx="4"/><text x="640" y="1167" fill="#1d4ed8" font-size="11" font-weight="bold">31 集全量综合平均</text><text x="808" y="1167" fill="#1d4ed8" font-size="11" font-weight="bold">2.66x</text><text x="883" y="1167" fill="#475569" font-size="11" font-weight="bold">2.47x</text><text x="958" y="1167" fill="#1d4ed8" font-size="11" font-weight="bold">28.5 GB/s</text><text x="1043" y="1167" fill="#475569" font-size="11" font-weight="bold">21.9 GB/s</text><text x="1180" y="1167" fill="#1e3a8a" font-size="11" font-weight="bold" text-anchor="end">+10.1% 提速</text></g></g><text x="36" y="1246" fill="#0f172a" font-size="16" font-weight="bold">典型时序工业场景对比</text><text x="36" y="1266" fill="#475569" font-size="12">涵盖十进制传感、平滑趋势波形、高频量化行情与极低熵稳态流</text><g class="scenario-card"><rect width="576" height="228" x="32" y="1304" fill="#fff" stroke="#cbd5e1" stroke-width="1.2" rx="10"/><path fill="#f8fafc" d="M32 1314q0-10 10-10h556q10 0 10 10v38H32Z"/><text x="50" y="1326" fill="#0f172a" font-size="13" font-weight="bold">十进制环境传感</text><text x="50" y="1341" fill="#475569" font-size="11">NEON/NOAA 气压、气温、地表时序 (1024 点)</text><rect width="76" height="22" x="516" y="1316" fill="#f1f5f9" rx="4"/><text x="554" y="1331" fill="#1e293b" font-size="10.5" font-weight="bold" text-anchor="middle">十进制传感</text><path stroke="#cbd5e1" d="M32 1352h576"/><rect width="556" height="26" x="42" y="1362" fill="#f1f5f9" rx="5"/><text x="52" y="1379" fill="#334155" font-size="10.5" font-weight="bold">算法名称</text><text x="197" y="1379" fill="#334155" font-size="10.5" font-weight="bold">解压吞吐</text><text x="297" y="1379" fill="#334155" font-size="10.5" font-weight="bold">压缩吞吐</text><text x="392" y="1379" fill="#334155" font-size="10.5" font-weight="bold">压缩率</text><text x="588" y="1379" fill="#334155" font-size="10.5" font-weight="bold" text-anchor="end">相对对比</text><rect width="556" height="28" x="42" y="1398" fill="#f0f7ff" rx="5"/><text x="52" y="1416" fill="#1d4ed8" font-size="12" font-weight="bold">fastalp (Rust)</text><text x="197" y="1416" fill="#1d4ed8" font-size="12" font-weight="bold">22.8 GB/s</text><text x="297" y="1416" fill="#92400e" font-size="12" font-weight="bold">4.8 GB/s</text><text x="392" y="1416" fill="#1d4ed8" font-size="12" font-weight="bold">7.91x</text><text x="588" y="1416" fill="#1e3a8a" font-size="11.5" font-weight="bold" text-anchor="end">领先 (零误差)</text><rect width="556" height="28" x="42" y="1428" fill="#f8fafc" rx="5"/><text x="52" y="1446" fill="#0f172a" font-size="12" font-weight="600">C++ ALP</text><text x="197" y="1446" fill="#1e293b" font-size="12" font-weight="600">21.8 GB/s</text><text x="297" y="1446" fill="#475569" font-size="12" font-weight="500">0.8 GB/s</text><text x="392" y="1446" fill="#1e293b" font-size="12" font-weight="600">7.86x</text><text x="588" y="1446" fill="#475569" font-size="11.5" font-weight="bold" text-anchor="end">基准 (压缩慢)</text><text x="52" y="1476" fill="#0f172a" font-size="12" font-weight="600">Pcodec (pco)</text><text x="197" y="1476" fill="#475569" font-size="12" font-weight="600">1.58 GB/s</text><text x="297" y="1476" fill="#475569" font-size="12" font-weight="500">0.2 GB/s</text><text x="392" y="1476" fill="#475569" font-size="12" font-weight="600">7.82x</text><text x="588" y="1476" fill="#475569" font-size="11.5" font-weight="bold" text-anchor="end">解压仅 0.07x</text><rect width="556" height="28" x="42" y="1488" fill="#f8fafc" rx="5"/><text x="52" y="1506" fill="#0f172a" font-size="12" font-weight="600">LZ4</text><text x="197" y="1506" fill="#475569" font-size="12" font-weight="600">11.3 GB/s</text><text x="297" y="1506" fill="#475569" font-size="12" font-weight="500">3.8 GB/s</text><text x="392" y="1506" fill="#475569" font-size="12" font-weight="600">1.25x</text><text x="588" y="1506" fill="#475569" font-size="11.5" font-weight="bold" text-anchor="end">压缩率仅 1.25x</text></g><g class="scenario-card"><rect width="576" height="228" x="632" y="1304" fill="#fff" stroke="#cbd5e1" stroke-width="1.2" rx="10"/><path fill="#f8fafc" d="M632 1314q0-10 10-10h556q10 0 10 10v38H632Z"/><text x="650" y="1326" fill="#0f172a" font-size="13" font-weight="bold">物理波形与单调趋势时序</text><text x="650" y="1341" fill="#475569" font-size="11">平滑升降坡道、河流径流与水位 (1024 点)</text><rect width="76" height="22" x="1116" y="1316" fill="#f1f5f9" rx="4"/><text x="1154" y="1331" fill="#1e293b" font-size="10.5" font-weight="bold" text-anchor="middle">差分时序</text><path stroke="#cbd5e1" d="M632 1352h576"/><rect width="556" height="26" x="642" y="1362" fill="#f1f5f9" rx="5"/><text x="652" y="1379" fill="#334155" font-size="10.5" font-weight="bold">算法名称</text><text x="797" y="1379" fill="#334155" font-size="10.5" font-weight="bold">解压吞吐</text><text x="897" y="1379" fill="#334155" font-size="10.5" font-weight="bold">压缩吞吐</text><text x="992" y="1379" fill="#334155" font-size="10.5" font-weight="bold">压缩率</text><text x="1188" y="1379" fill="#334155" font-size="10.5" font-weight="bold" text-anchor="end">相对对比</text><rect width="556" height="28" x="642" y="1398" fill="#f0f7ff" rx="5"/><text x="652" y="1416" fill="#1d4ed8" font-size="12" font-weight="bold">fastalp (Delta)</text><text x="797" y="1416" fill="#1d4ed8" font-size="12" font-weight="bold">40.7 GB/s</text><text x="897" y="1416" fill="#92400e" font-size="12" font-weight="bold">3.1 GB/s</text><text x="992" y="1416" fill="#1d4ed8" font-size="12" font-weight="bold">431.2x</text><text x="1188" y="1416" fill="#1e3a8a" font-size="11.5" font-weight="bold" text-anchor="end">比 C++ 高 458x</text><rect width="556" height="28" x="642" y="1428" fill="#f8fafc" rx="5"/><text x="652" y="1446" fill="#0f172a" font-size="12" font-weight="600">Pcodec (pco)</text><text x="797" y="1446" fill="#475569" font-size="12" font-weight="600">0.85 GB/s</text><text x="897" y="1446" fill="#475569" font-size="12" font-weight="500">0.1 GB/s</text><text x="992" y="1446" fill="#475569" font-size="12" font-weight="600">44.5x</text><text x="1188" y="1446" fill="#475569" font-size="11.5" font-weight="bold" text-anchor="end">体积大 9.7x</text><text x="652" y="1476" fill="#0f172a" font-size="12" font-weight="600">Zstd (Level 3)</text><text x="797" y="1476" fill="#475569" font-size="12" font-weight="600">0.90 GB/s</text><text x="897" y="1476" fill="#475569" font-size="12" font-weight="500">0.3 GB/s</text><text x="992" y="1476" fill="#475569" font-size="12" font-weight="600">6.93x</text><text x="1188" y="1476" fill="#475569" font-size="11.5" font-weight="bold" text-anchor="end">解压慢 45x</text><rect width="556" height="28" x="642" y="1488" fill="#f8fafc" rx="5"/><text x="652" y="1506" fill="#0f172a" font-size="12" font-weight="600">C++ ALP</text><text x="797" y="1506" fill="#991b1b" font-size="12" font-weight="600">0.58 GB/s</text><text x="897" y="1506" fill="#475569" font-size="12" font-weight="500">0.4 GB/s</text><text x="992" y="1506" fill="#991b1b" font-size="12" font-weight="600">0.94x</text><text x="1188" y="1506" fill="#475569" font-size="11.5" font-weight="bold" text-anchor="end">异常负膨胀</text></g><g class="scenario-card"><rect width="576" height="228" x="32" y="1550" fill="#fff" stroke="#cbd5e1" stroke-width="1.2" rx="10"/><path fill="#f8fafc" d="M32 1560q0-10 10-10h556q10 0 10 10v38H32Z"/><text x="50" y="1572" fill="#0f172a" font-size="13" font-weight="bold">高频金融量化交易行情</text><text x="50" y="1587" fill="#475569" font-size="11">美/德/英 股市高频交易成交价 (1024 点)</text><rect width="76" height="22" x="516" y="1562" fill="#f1f5f9" rx="4"/><text x="554" y="1577" fill="#1e293b" font-size="10.5" font-weight="bold" text-anchor="middle">量化金融</text><path stroke="#cbd5e1" d="M32 1598h576"/><rect width="556" height="26" x="42" y="1608" fill="#f1f5f9" rx="5"/><text x="52" y="1625" fill="#334155" font-size="10.5" font-weight="bold">算法名称</text><text x="197" y="1625" fill="#334155" font-size="10.5" font-weight="bold">解压吞吐</text><text x="297" y="1625" fill="#334155" font-size="10.5" font-weight="bold">压缩吞吐</text><text x="392" y="1625" fill="#334155" font-size="10.5" font-weight="bold">压缩率</text><text x="588" y="1625" fill="#334155" font-size="10.5" font-weight="bold" text-anchor="end">相对对比</text><rect width="556" height="28" x="42" y="1644" fill="#f0f7ff" rx="5"/><text x="52" y="1662" fill="#1d4ed8" font-size="12" font-weight="bold">fastalp (Rust)</text><text x="197" y="1662" fill="#1d4ed8" font-size="12" font-weight="bold">24.2 GB/s</text><text x="297" y="1662" fill="#92400e" font-size="12" font-weight="bold">4.2 GB/s</text><text x="392" y="1662" fill="#1d4ed8" font-size="12" font-weight="bold">10.41x</text><text x="588" y="1662" fill="#1e3a8a" font-size="11.5" font-weight="bold" text-anchor="end">解压快 14%</text><rect width="556" height="28" x="42" y="1674" fill="#f8fafc" rx="5"/><text x="52" y="1692" fill="#0f172a" font-size="12" font-weight="600">C++ ALP</text><text x="197" y="1692" fill="#1e293b" font-size="12" font-weight="600">21.2 GB/s</text><text x="297" y="1692" fill="#475569" font-size="12" font-weight="500">1.2 GB/s</text><text x="392" y="1692" fill="#1e293b" font-size="12" font-weight="600">4.19x</text><text x="588" y="1692" fill="#475569" font-size="11.5" font-weight="bold" text-anchor="end">压缩率仅 4.19x</text><text x="52" y="1722" fill="#0f172a" font-size="12" font-weight="600">Snappy (snap)</text><text x="197" y="1722" fill="#475569" font-size="12" font-weight="600">5.62 GB/s</text><text x="297" y="1722" fill="#475569" font-size="12" font-weight="500">2.8 GB/s</text><text x="392" y="1722" fill="#475569" font-size="12" font-weight="600">1.28x</text><text x="588" y="1722" fill="#475569" font-size="11.5" font-weight="bold" text-anchor="end">压缩率仅 1.28x</text><rect width="556" height="28" x="42" y="1734" fill="#f8fafc" rx="5"/><text x="52" y="1752" fill="#0f172a" font-size="12" font-weight="600">Gorilla (XOR)</text><text x="197" y="1752" fill="#475569" font-size="12" font-weight="600">0.34 GB/s</text><text x="297" y="1752" fill="#475569" font-size="12" font-weight="500">0.3 GB/s</text><text x="392" y="1752" fill="#475569" font-size="12" font-weight="600">2.12x</text><text x="588" y="1752" fill="#475569" font-size="11.5" font-weight="bold" text-anchor="end">解压慢 71x</text></g><g class="scenario-card"><rect width="576" height="228" x="632" y="1550" fill="#fff" stroke="#cbd5e1" stroke-width="1.2" rx="10"/><path fill="#f8fafc" d="M632 1560q0-10 10-10h556q10 0 10 10v38H632Z"/><text x="650" y="1572" fill="#0f172a" font-size="13" font-weight="bold">稳态常数与极低熵监控流</text><text x="650" y="1587" fill="#475569" font-size="11">恒定传感器、无故障监控与常量流 (1024 点)</text><rect width="76" height="22" x="1116" y="1562" fill="#f1f5f9" rx="4"/><text x="1154" y="1577" fill="#1e293b" font-size="10.5" font-weight="bold" text-anchor="middle">稳态常数</text><path stroke="#cbd5e1" d="M632 1598h576"/><rect width="556" height="26" x="642" y="1608" fill="#f1f5f9" rx="5"/><text x="652" y="1625" fill="#334155" font-size="10.5" font-weight="bold">算法名称</text><text x="797" y="1625" fill="#334155" font-size="10.5" font-weight="bold">解压吞吐</text><text x="897" y="1625" fill="#334155" font-size="10.5" font-weight="bold">压缩吞吐</text><text x="992" y="1625" fill="#334155" font-size="10.5" font-weight="bold">压缩率</text><text x="1188" y="1625" fill="#334155" font-size="10.5" font-weight="bold" text-anchor="end">相对对比</text><rect width="556" height="28" x="642" y="1644" fill="#f0f7ff" rx="5"/><text x="652" y="1662" fill="#1d4ed8" font-size="12" font-weight="bold">fastalp (Rust)</text><text x="797" y="1662" fill="#1d4ed8" font-size="12" font-weight="bold">88.9 GB/s</text><text x="897" y="1662" fill="#92400e" font-size="12" font-weight="bold">24.6 GB/s</text><text x="992" y="1662" fill="#1d4ed8" font-size="12" font-weight="bold">744.7x</text><text x="1188" y="1662" fill="#1e3a8a" font-size="11.5" font-weight="bold" text-anchor="end">比 C++ 快 3.8x</text><rect width="556" height="28" x="642" y="1674" fill="#f8fafc" rx="5"/><text x="652" y="1692" fill="#0f172a" font-size="12" font-weight="600">C++ ALP</text><text x="797" y="1692" fill="#1e293b" font-size="12" font-weight="600">23.5 GB/s</text><text x="897" y="1692" fill="#475569" font-size="12" font-weight="500">7.2 GB/s</text><text x="992" y="1692" fill="#1e293b" font-size="12" font-weight="600">455.1x</text><text x="1188" y="1692" fill="#475569" font-size="11.5" font-weight="bold" text-anchor="end">基准</text><text x="652" y="1722" fill="#0f172a" font-size="12" font-weight="600">Zstd (Level 3)</text><text x="797" y="1722" fill="#475569" font-size="12" font-weight="600">3.37 GB/s</text><text x="897" y="1722" fill="#475569" font-size="12" font-weight="500">3.5 GB/s</text><text x="992" y="1722" fill="#475569" font-size="12" font-weight="600">292.6x</text><text x="1188" y="1722" fill="#475569" font-size="11.5" font-weight="bold" text-anchor="end">解压慢 26x</text><rect width="556" height="28" x="642" y="1734" fill="#f8fafc" rx="5"/><text x="652" y="1752" fill="#0f172a" font-size="12" font-weight="600">Pcodec (pco)</text><text x="797" y="1752" fill="#475569" font-size="12" font-weight="600">4.82 GB/s</text><text x="897" y="1752" fill="#475569" font-size="12" font-weight="500">0.5 GB/s</text><text x="992" y="1752" fill="#475569" font-size="12" font-weight="600">282.5x</text><text x="1188" y="1752" fill="#475569" font-size="11.5" font-weight="bold" text-anchor="end">解压慢 18x</text></g><text x="620" y="1808" fill="#475569" font-size="11.5" font-weight="500" text-anchor="middle">在 Apple M2 Max 实机与 C++ ALP 官方实现同机评测。保证 IEEE 754 浮点二进制位严格无损重构。</text></svg>